<svg xmlns="http://www.w3.org/2000/svg" class="icon" style="width: 1.00390625em; height: 1em;vertical-align: middle;fill: currentColor;overflow: hidden;" viewBox="0 0 1028 1024" t="1577257894459" p-id="4394" version="1.1"><path fill="#ff7162" d="M 825.82 199.025 C 741.931 115.544 630.434 69.566 511.806 69.566 S 281.64 115.544 197.744 199.024 S 67.6 393.614 67.6 511.766 s 46.225 229.24 130.143 312.75 s 195.394 129.458 314.033 129.458 s 230.155 -45.928 314.013 -129.457 s 130.143 -194.63 130.143 -312.781 s -46.156 -229.201 -130.114 -312.711 Z m -91.916 344.472 H 543.537 v 190.377 c 0 17.524 -14.206 31.731 -31.73 31.731 s -31.731 -14.207 -31.731 -31.73 V 543.496 H 289.698 c -17.524 0 -31.73 -14.206 -31.73 -31.73 s 14.206 -31.731 31.73 -31.731 h 190.377 V 289.667 c 0 -17.524 14.206 -31.73 31.73 -31.73 c 17.526 0 31.731 14.206 31.731 31.73 v 190.377 h 190.367 c 17.524 0 31.73 14.207 31.73 31.73 s -14.206 31.732 -31.73 31.732 v -0.009 Z" p-id="4395" data-spm-anchor-id="a313x.7781069.0.i4"/></svg>